<svg xmlns="http://www.w3.org/2000/svg" version="1.1" xmlns:xlink="http://www.w3.org/1999/xlink" xmlns:svgjs="http://svgjs.com/svgjs" width="1000" height="1000"><rect width="1000" height="1000" rx="200" ry="200" fill="#020617"></rect><g transform="matrix(0.78125,0,0,0.78125,99.99999666213989,94.1052622795105)"><svg xmlns="http://www.w3.org/2000/svg" version="1.1" xmlns:xlink="http://www.w3.org/1999/xlink" xmlns:svgjs="http://svgjs.com/svgjs" width="1024" height="1024"><svg viewBox="0 0 1024 1024" class="icon" version="1.1" xmlns="http://www.w3.org/2000/svg" fill="white">
    <path d="M619.789474 862.315789h-215.578948C232.448 862.315789 107.789474 744.340211 107.789474 581.820632c0-153.842526 110.187789-242.876632 198.736842-314.421895C373.409684 213.369263 431.157895 166.723368 431.157895 107.789474h53.894737c0 84.668632-70.251789 141.419789-144.653474 201.539368C252.550737 380.308211 161.684211 453.712842 161.684211 581.820632 161.684211 715.237053 261.416421 808.421053 404.210526 808.421053h215.578948c142.794105 0 242.526316-93.184 242.526315-226.600421 0-128.107789-90.866526-201.512421-178.714947-272.49179C609.199158 249.209263 538.947368 192.458105 538.947368 107.789474h53.894737c0 58.933895 57.775158 105.579789 124.631579 159.609263C805.995789 338.944 916.210526 427.978105 916.210526 581.820632 916.210526 744.340211 791.552 862.315789 619.789474 862.315789z m2.829473-392.165052l-80.842105-161.684211 48.208842-24.117894 80.842105 161.68421-48.208842 24.117895z m-221.237894 0l-48.208842-24.117895 80.842105-161.68421 48.208842 24.117894-80.842105 161.684211z"></path>
</svg></svg></g></svg>